<mxfile host="app.diagrams.net" agent="Mozilla/5.0 (Macintosh; Intel Mac OS X 10_15_7) AppleWebKit/537.36 (KHTML, like Gecko) Chrome/132.0.0.0 Safari/537.36" version="26.0.15">
  <diagram name="Page-1" id="hxOTB0g0Eq7f5OYLcAWW">
    <mxGraphModel dx="1123" dy="602" grid="1" gridSize="10" guides="1" tooltips="1" connect="1" arrows="1" fold="1" page="1" pageScale="1" pageWidth="850" pageHeight="1100" math="0" shadow="0">
      <root>
        <mxCell id="0" />
        <mxCell id="1" parent="0" />
        <mxCell id="9zQbBq_y_sAqQZAthKbV-16" style="edgeStyle=orthogonalEdgeStyle;rounded=0;orthogonalLoop=1;jettySize=auto;html=1;" edge="1" parent="1" source="9zQbBq_y_sAqQZAthKbV-1" target="9zQbBq_y_sAqQZAthKbV-3">
          <mxGeometry relative="1" as="geometry" />
        </mxCell>
        <mxCell id="9zQbBq_y_sAqQZAthKbV-17" style="edgeStyle=orthogonalEdgeStyle;rounded=0;orthogonalLoop=1;jettySize=auto;html=1;entryX=0.5;entryY=0;entryDx=0;entryDy=0;" edge="1" parent="1" source="9zQbBq_y_sAqQZAthKbV-1" target="9zQbBq_y_sAqQZAthKbV-12">
          <mxGeometry relative="1" as="geometry" />
        </mxCell>
        <mxCell id="9zQbBq_y_sAqQZAthKbV-18" style="edgeStyle=orthogonalEdgeStyle;rounded=0;orthogonalLoop=1;jettySize=auto;html=1;entryX=0.5;entryY=0;entryDx=0;entryDy=0;" edge="1" parent="1" source="9zQbBq_y_sAqQZAthKbV-1" target="9zQbBq_y_sAqQZAthKbV-15">
          <mxGeometry relative="1" as="geometry" />
        </mxCell>
        <mxCell id="9zQbBq_y_sAqQZAthKbV-19" style="edgeStyle=orthogonalEdgeStyle;rounded=0;orthogonalLoop=1;jettySize=auto;html=1;entryX=0.5;entryY=0;entryDx=0;entryDy=0;" edge="1" parent="1" source="9zQbBq_y_sAqQZAthKbV-1" target="9zQbBq_y_sAqQZAthKbV-14">
          <mxGeometry relative="1" as="geometry" />
        </mxCell>
        <mxCell id="9zQbBq_y_sAqQZAthKbV-20" style="edgeStyle=orthogonalEdgeStyle;rounded=0;orthogonalLoop=1;jettySize=auto;html=1;entryX=0.5;entryY=0;entryDx=0;entryDy=0;" edge="1" parent="1" source="9zQbBq_y_sAqQZAthKbV-1" target="9zQbBq_y_sAqQZAthKbV-13">
          <mxGeometry relative="1" as="geometry" />
        </mxCell>
        <mxCell id="9zQbBq_y_sAqQZAthKbV-1" value="&lt;font style=&quot;font-size: 19px;&quot;&gt;Engine&lt;/font&gt;" style="rounded=0;whiteSpace=wrap;html=1;" vertex="1" parent="1">
          <mxGeometry x="365" y="30" width="120" height="60" as="geometry" />
        </mxCell>
        <mxCell id="9zQbBq_y_sAqQZAthKbV-3" value="&lt;font style=&quot;font-size: 20px;&quot;&gt;Thread_0&lt;/font&gt;" style="rounded=0;whiteSpace=wrap;html=1;" vertex="1" parent="1">
          <mxGeometry x="20" y="120" width="120" height="60" as="geometry" />
        </mxCell>
        <mxCell id="9zQbBq_y_sAqQZAthKbV-12" value="&lt;font style=&quot;font-size: 20px;&quot;&gt;Thread_1&lt;/font&gt;" style="rounded=0;whiteSpace=wrap;html=1;" vertex="1" parent="1">
          <mxGeometry x="160" y="120" width="120" height="60" as="geometry" />
        </mxCell>
        <mxCell id="9zQbBq_y_sAqQZAthKbV-13" value="&lt;font style=&quot;font-size: 20px;&quot;&gt;Thread_n&lt;/font&gt;" style="rounded=0;whiteSpace=wrap;html=1;" vertex="1" parent="1">
          <mxGeometry x="710" y="120" width="120" height="60" as="geometry" />
        </mxCell>
        <mxCell id="9zQbBq_y_sAqQZAthKbV-14" value="&lt;font style=&quot;font-size: 20px;&quot;&gt;Thread_n-1&lt;/font&gt;" style="rounded=0;whiteSpace=wrap;html=1;" vertex="1" parent="1">
          <mxGeometry x="580" y="120" width="120" height="60" as="geometry" />
        </mxCell>
        <mxCell id="9zQbBq_y_sAqQZAthKbV-15" value="&lt;font style=&quot;font-size: 20px;&quot;&gt;Thread_k&lt;/font&gt;" style="rounded=0;whiteSpace=wrap;html=1;" vertex="1" parent="1">
          <mxGeometry x="365" y="120" width="120" height="60" as="geometry" />
        </mxCell>
        <mxCell id="9zQbBq_y_sAqQZAthKbV-21" value="&lt;font style=&quot;font-size: 30px;&quot;&gt;...&lt;/font&gt;" style="text;html=1;align=center;verticalAlign=middle;whiteSpace=wrap;rounded=0;" vertex="1" parent="1">
          <mxGeometry x="290" y="130" width="60" height="30" as="geometry" />
        </mxCell>
        <mxCell id="9zQbBq_y_sAqQZAthKbV-22" value="&lt;font style=&quot;font-size: 30px;&quot;&gt;...&lt;/font&gt;" style="text;html=1;align=center;verticalAlign=middle;whiteSpace=wrap;rounded=0;" vertex="1" parent="1">
          <mxGeometry x="500" y="130" width="60" height="30" as="geometry" />
        </mxCell>
        <mxCell id="9zQbBq_y_sAqQZAthKbV-24" value="&lt;font style=&quot;font-size: 20px;&quot;&gt;RadiationManager&lt;/font&gt;" style="rounded=0;whiteSpace=wrap;html=1;" vertex="1" parent="1">
          <mxGeometry x="110" y="230" width="190" height="60" as="geometry" />
        </mxCell>
        <mxCell id="9zQbBq_y_sAqQZAthKbV-27" value="&lt;font style=&quot;font-size: 20px;&quot;&gt;ConductionManager&lt;/font&gt;" style="rounded=0;whiteSpace=wrap;html=1;" vertex="1" parent="1">
          <mxGeometry x="330" y="230" width="190" height="60" as="geometry" />
        </mxCell>
        <mxCell id="9zQbBq_y_sAqQZAthKbV-28" value="&lt;font style=&quot;font-size: 20px;&quot;&gt;ConvectionManager&lt;/font&gt;" style="rounded=0;whiteSpace=wrap;html=1;" vertex="1" parent="1">
          <mxGeometry x="550" y="230" width="190" height="60" as="geometry" />
        </mxCell>
        <mxCell id="9zQbBq_y_sAqQZAthKbV-31" value="" style="endArrow=classic;html=1;rounded=0;exitX=0.5;exitY=1;exitDx=0;exitDy=0;entryX=0.5;entryY=0;entryDx=0;entryDy=0;" edge="1" parent="1" source="9zQbBq_y_sAqQZAthKbV-15" target="9zQbBq_y_sAqQZAthKbV-24">
          <mxGeometry width="50" height="50" relative="1" as="geometry">
            <mxPoint x="400" y="290" as="sourcePoint" />
            <mxPoint x="450" y="240" as="targetPoint" />
          </mxGeometry>
        </mxCell>
        <mxCell id="9zQbBq_y_sAqQZAthKbV-32" value="" style="endArrow=classic;html=1;rounded=0;exitX=0.5;exitY=1;exitDx=0;exitDy=0;entryX=0.5;entryY=0;entryDx=0;entryDy=0;" edge="1" parent="1" source="9zQbBq_y_sAqQZAthKbV-15" target="9zQbBq_y_sAqQZAthKbV-27">
          <mxGeometry width="50" height="50" relative="1" as="geometry">
            <mxPoint x="435" y="190" as="sourcePoint" />
            <mxPoint x="215" y="240" as="targetPoint" />
          </mxGeometry>
        </mxCell>
        <mxCell id="9zQbBq_y_sAqQZAthKbV-33" value="" style="endArrow=classic;html=1;rounded=0;exitX=0.5;exitY=1;exitDx=0;exitDy=0;entryX=0.5;entryY=0;entryDx=0;entryDy=0;" edge="1" parent="1" source="9zQbBq_y_sAqQZAthKbV-15" target="9zQbBq_y_sAqQZAthKbV-28">
          <mxGeometry width="50" height="50" relative="1" as="geometry">
            <mxPoint x="435" y="190" as="sourcePoint" />
            <mxPoint x="435" y="240" as="targetPoint" />
          </mxGeometry>
        </mxCell>
        <mxCell id="9zQbBq_y_sAqQZAthKbV-34" value="&lt;font style=&quot;font-size: 20px;&quot;&gt;EngineObject&lt;/font&gt;" style="rounded=0;whiteSpace=wrap;html=1;" vertex="1" parent="1">
          <mxGeometry x="330" y="350" width="190" height="60" as="geometry" />
        </mxCell>
        <mxCell id="9zQbBq_y_sAqQZAthKbV-37" value="" style="endArrow=classic;html=1;rounded=0;exitX=0.482;exitY=0.996;exitDx=0;exitDy=0;exitPerimeter=0;entryX=0.5;entryY=0;entryDx=0;entryDy=0;" edge="1" parent="1" source="9zQbBq_y_sAqQZAthKbV-24" target="9zQbBq_y_sAqQZAthKbV-34">
          <mxGeometry width="50" height="50" relative="1" as="geometry">
            <mxPoint x="400" y="340" as="sourcePoint" />
            <mxPoint x="450" y="290" as="targetPoint" />
          </mxGeometry>
        </mxCell>
        <mxCell id="9zQbBq_y_sAqQZAthKbV-40" value="+energyDelta" style="edgeLabel;html=1;align=center;verticalAlign=middle;resizable=0;points=[];" vertex="1" connectable="0" parent="9zQbBq_y_sAqQZAthKbV-37">
          <mxGeometry x="-0.1061" y="2" relative="1" as="geometry">
            <mxPoint as="offset" />
          </mxGeometry>
        </mxCell>
        <mxCell id="9zQbBq_y_sAqQZAthKbV-38" value="" style="endArrow=classic;html=1;rounded=0;exitX=0.5;exitY=1;exitDx=0;exitDy=0;entryX=0.5;entryY=0;entryDx=0;entryDy=0;" edge="1" parent="1" source="9zQbBq_y_sAqQZAthKbV-27" target="9zQbBq_y_sAqQZAthKbV-34">
          <mxGeometry width="50" height="50" relative="1" as="geometry">
            <mxPoint x="212" y="300" as="sourcePoint" />
            <mxPoint x="435" y="360" as="targetPoint" />
          </mxGeometry>
        </mxCell>
        <mxCell id="9zQbBq_y_sAqQZAthKbV-42" value="+energyDelta" style="edgeLabel;html=1;align=center;verticalAlign=middle;resizable=0;points=[];" vertex="1" connectable="0" parent="9zQbBq_y_sAqQZAthKbV-38">
          <mxGeometry x="-0.1828" y="1" relative="1" as="geometry">
            <mxPoint as="offset" />
          </mxGeometry>
        </mxCell>
        <mxCell id="9zQbBq_y_sAqQZAthKbV-39" value="" style="endArrow=classic;html=1;rounded=0;exitX=0.5;exitY=1;exitDx=0;exitDy=0;entryX=0.517;entryY=-0.052;entryDx=0;entryDy=0;entryPerimeter=0;" edge="1" parent="1" source="9zQbBq_y_sAqQZAthKbV-28">
          <mxGeometry width="50" height="50" relative="1" as="geometry">
            <mxPoint x="638.39" y="293.12" as="sourcePoint" />
            <mxPoint x="421.62" y="350" as="targetPoint" />
          </mxGeometry>
        </mxCell>
        <mxCell id="9zQbBq_y_sAqQZAthKbV-44" value="+energyDelta" style="edgeLabel;html=1;align=center;verticalAlign=middle;resizable=0;points=[];" vertex="1" connectable="0" parent="9zQbBq_y_sAqQZAthKbV-39">
          <mxGeometry x="-0.1055" y="1" relative="1" as="geometry">
            <mxPoint as="offset" />
          </mxGeometry>
        </mxCell>
      </root>
    </mxGraphModel>
  </diagram>
</mxfile>
